:FULLY-SPECIFIED
:FORCE-ALL-JOINTS-BE-3DOF
:DEGREES
917
root 2.80747 16.132 32.4876 3.80874 9.44655 3.55231
lfemur -9.42187 6.11572 -1.52443
ltibia 23.5167 -0 0
lfoot -10.2572 -30.7408 -0.777021
ltoes 13.6778 -0 0
rfemur -17.5658 -1.87827 -10.759
rtibia 49.1992 -0 0
rfoot -0.0272276 -18.7541 -0.964091
rtoes -10.839 0 0
lowerback -2.10041 -0.674454 -2.54734
upperback -1.30218 -0.849475 -5.52075
thorax -0.25476 -0.43609 -4.34883
lowerneck -6.93736 -4.17851 -0.930486
upperneck 4.01201 -5.82756 5.59238
head 2.72079 -2.73313 1.69573
lclavicle -2.24875e-15 2.22639e-14 0
lhumerus -54.885 -37.2992 110.101
lradius 58.8046 -0 0
lwrist 15.637 0 0
lhand 39.5518 24.3592 0.203732
lfingers 7.12502 -0 0
lthumb 61.852 34.7085 -0.0907356
rclavicle -2.24875e-15 2.22639e-14 0
rhumerus -56.9599 40.642 -89.6446
rradius 119.582 -0 0
rwrist -5.41756 0 0
rhand 25.8985 -3.81902 -3.53017
rfingers 7.12502 -0 0
rthumb 50.0542 -27.1822 -3.64936
918
root 2.74385 16.1125 32.5119 4.02475 8.50804 3.74945
lfemur -8.12364 4.23509 -0.634647
ltibia 21.0648 -0 0
lfoot -9.78486 -33.2592 -0.715235
ltoes 13.7352 -0 0
rfemur -17.637 -1.56549 -11.0657
rtibia 47.403 -0 0
rfoot -0.1658 -17.5642 -0.898963
rtoes -15.9738 0 0
lowerback -2.41744 -0.610122 -2.53203
upperback -1.3755 -0.752013 -5.79582
thorax -0.151939 -0.386141 -4.64721
lowerneck -6.94706 -3.90766 -0.787327
upperneck 3.98597 -5.47969 5.63748
head 2.69806 -2.55677 1.70313
lclavicle -2.24875e-15 2.22639e-14 0
lhumerus -54.881 -37.4098 109.768
lradius 58.6442 -0 0
lwrist 15.9622 0 0
lhand 40.3325 24.9272 0.176989
lfingers 7.12502 -0 0
lthumb 62.5143 34.5449 -0.0850332
rclavicle -2.24875e-15 2.22639e-14 0
rhumerus -57.3644 42.1936 -88.1472
rradius 119.31 -0 0
rwrist -5.28909 0 0
rhand 26.1135 -4.40802 -3.31335
rfingers 7.12502 -0 0
rthumb 50.2507 -27.6056 -3.43858
919
root 2.67595 16.0905 32.5363 4.20482 7.615 3.9354
lfemur -6.88395 2.3976 0.163429
ltibia 18.6877 -0 0
lfoot -9.32898 -35.6717 -0.63492
ltoes 13.7597 -0 0
rfemur -17.8108 -1.35204 -11.3052
rtibia 45.7454 -0 0
rfoot -0.260523 -16.2994 -0.814284
rtoes -21.0219 0 0
lowerback -2.69342 -0.555104 -2.5248
upperback -1.43442 -0.667533 -6.05932
thorax -0.0556922 -0.342479 -4.9269
lowerneck -6.95762 -3.63912 -0.640884
upperneck 3.96201 -5.13521 5.6803
head 2.67617 -2.38203 1.709
lclavicle -2.24875e-15 2.22639e-14 0
lhumerus -54.833 -37.5318 109.397
lradius 58.4901 -0 0
lwrist 16.2908 0 0
lhand 41.0716 25.4594 0.146494
lfingers 7.12502 -0 0
lthumb 63.1409 34.3807 -0.0770685
rclavicle -2.24875e-15 2.22639e-14 0
rhumerus -57.6167 43.5804 -86.5151
rradius 118.943 -0 0
rwrist -5.20078 0 0
rhand 26.1748 -5.07111 -3.02492
rfingers 7.12502 -0 0
rthumb 50.3043 -28.1188 -3.15194
920
root 2.60299 16.0656 32.5617 4.34649 6.77864 4.10916
lfemur -5.7099 0.628237 0.865406
ltibia 16.4128 -0 0
lfoot -8.89513 -37.9493 -0.539538
ltoes 13.7497 -0 0
rfemur -18.0885 -1.24448 -11.4724
rtibia 44.2491 -0 0
rfoot -0.307917 -14.9697 -0.711539
rtoes -25.9281 0 0
lowerback -2.92385 -0.510413 -2.5259
upperback -1.47762 -0.597292 -6.30805
thorax 0.0328115 -0.305931 -5.18428
lowerneck -6.96899 -3.37571 -0.492518
upperneck 3.9404 -4.79778 5.72035
head 2.65538 -2.21078 1.71323
lclavicle -2.24875e-15 2.22639e-14 0
lhumerus -54.7392 -37.6641 108.99
lradius 58.3442 -0 0
lwrist 16.6196 0 0
lhand 41.7599 25.949 0.114106
lfingers 7.12502 -0 0
lthumb 63.7237 34.2174 -0.0670795
rclavicle -2.24875e-15 2.22639e-14 0
rhumerus -57.7074 44.7771 -84.7535
rradius 118.479 -0 0
rwrist -5.15518 0 0
rhand 26.0738 -5.8055 -2.6676
rfingers 7.12502 -0 0
rthumb 50.2069 -28.7211 -2.7912
921
root 2.5242 16.0372 32.589 4.44736 6.01022 4.26979
lfemur -4.60818 -1.04775 1.46793
ltibia 14.2673 -0 0
lfoot -8.48852 -40.063 -0.433281
ltoes 13.7036 -0 0
rfemur -18.4718 -1.24894 -11.5616
rtibia 42.9367 -0 0
rfoot -0.304519 -13.5849 -0.592537
rtoes -30.6372 0 0
lowerback -3.10424 -0.477044 -2.5356
upperback -1.50375 -0.54254 -6.53878
thorax 0.112407 -0.27734 -5.41578
lowerneck -6.98114 -3.12028 -0.343589
upperneck 3.92144 -4.47107 5.75712
head 2.63594 -2.04487 1.7157
lclavicle -2.24875e-15 2.22639e-14 0
lhumerus -54.5981 -37.8056 108.549
lradius 58.2083 -0 0
lwrist 16.9453 0 0
lhand 42.388 26.3892 0.0819035
lfingers 7.12502 -0 0
lthumb 64.255 34.0569 -0.0553817
rclavicle -2.24875e-15 2.22639e-14 0
rhumerus -57.6326 45.7576 -82.8723
rradius 117.918 -0 0
rwrist -5.15483 0 0
rhand 25.8017 -6.60907 -2.2449
rfingers 7.12502 -0 0
rthumb 49.9504 -29.4125 -2.35894
922
root 2.43879 16.0048 32.619 4.50506 5.32097 4.41626
lfemur -3.58544 -2.60498 1.96849
ltibia 12.2785 -0 0
lfoot -8.11399 -41.984 -0.320919
ltoes 13.6199 -0 0
rfemur -18.9628 -1.37106 -11.5663
rtibia 41.8308 -0 0
rfoot -0.246921 -12.1545 -0.45939
rtoes -35.0942 0 0
lowerback -3.2301 -0.455972 -2.55418
upperback -1.51148 -0.50453 -6.7483
thorax 0.18193 -0.257555 -5.6178
lowerneck -6.99409 -2.87567 -0.195452
upperneck 3.90539 -4.15874 5.79014
head 2.61808 -1.88614 1.71632
lclavicle -2.24875e-15 2.22639e-14 0
lhumerus -54.4078 -37.9549 108.074
lradius 58.0843 -0 0
lwrist 17.2647 0 0
lhand 42.947 26.7731 0.0521163
lfingers 7.12502 -0 0
lthumb 64.7269 33.9006 -0.04236
rclavicle -2.24875e-15 2.22639e-14 0
rhumerus -57.3945 46.495 -80.8876
rradius 117.261 -0 0
rwrist -5.20227 0 0
rhand 25.3499 -7.4804 -1.76117
rfingers 7.12502 -0 0
rthumb 49.5261 -30.1938 -1.85866
923
root 2.34599 15.9681 32.6526 4.51723 4.72212 4.54749
lfemur -2.64859 -4.01809 2.36516
ltibia 10.474 -0 0
lfoot -7.77597 -43.6834 -0.207637
ltoes 13.4969 -0 0
rfemur -19.564 -1.61593 -11.4793
rtibia 40.954 -0 0
rfoot -0.13179 -10.6883 -0.314479
rtoes -39.2438 0 0
lowerback -3.29693 -0.448147 -2.58196
upperback -1.49946 -0.484524 -6.93341
thorax 0.240209 -0.247429 -5.78674
lowerneck -7.00787 -2.6447 -0.0494615
upperneck 3.8925 -3.86445 5.81892
head 2.60207 -1.73646 1.71496
lclavicle -2.24875e-15 2.22639e-14 0
lhumerus -54.1668 -38.1105 107.569
lradius 57.9739 -0 0
lwrist 17.5747 0 0
lhand 43.4275 27.0941 0.0270416
lfingers 7.12502 -0 0
lthumb 65.1314 33.7503 -0.0284576
rclavicle -2.24875e-15 2.22639e-14 0
rhumerus -57.003 46.9625 -78.8227
rradius 116.507 -0 0
rwrist -5.30006 0 0
rhand 24.7091 -8.41876 -1.22158
rfingers 7.12502 -0 0
rthumb 48.9252 -31.0662 -1.29484
924
root 2.24503 15.9265 32.6905 4.48149 4.22488 4.66223
lfemur -1.80508 -5.26183 2.65649
ltibia 8.88097 -0 0
lfoot -7.47855 -45.1324 -0.098847
ltoes 13.333 -0 0
rfemur -20.2787 -1.98797 -11.2926
rtibia 40.3289 -0 0
rfoot 0.0440966 -9.19599 -0.160416
rtoes -43.031 0 0
lowerback -3.30023 -0.454485 -2.61927
upperback -1.46637 -0.483801 -7.09095
thorax 0.286067 -0.24781 -5.91901
lowerneck -7.02252 -2.43022 0.0930328
upperneck 3.88303 -3.59187 5.84299
head 2.58815 -1.59768 1.71154
lclavicle -2.24875e-15 2.22639e-14 0
lhumerus -53.8732 -38.2711 107.035
lradius 57.879 -0 0
lwrist 17.872 0 0
lhand 43.8206 27.3454 0.00895335
lfingers 7.12502 -0 0
lthumb 65.4608 33.6076 -0.014164
rclavicle -2.24875e-15 2.22639e-14 0
rhumerus -56.476 47.1331 -76.7088
rradius 115.656 -0 0
rwrist -5.45072 0 0
rhand 23.8704 -9.42407 -0.632195
rfingers 7.12502 -0 0
rthumb 48.1386 -32.032 -0.673045
925
root 2.13513 15.8796 32.7337 4.39544 3.84042 364.759
lfemur -1.06315 -6.31122 2.8412
ltibia 7.52681 0 0
lfoot -7.2256 -46.3024 0
ltoes 13.1266 0 0
rfemur -21.1112 -2.49084 -10.9972
rtibia 39.9781 0 0
rfoot 0.283837 -7.68699 0
rtoes -46.4005 0 0
lowerback -3.23548 -0.47587 -2.6665
upperback -1.41089 -0.503662 -7.21775
thorax 0.318308 -0.259537 -6.011
lowerneck -7.03814 -2.23507 0.230682
upperneck 3.87724 -3.34467 5.86185
head 2.57656 -1.47165 1.70594
lclavicle -1.85118e-15 0 0
lhumerus -53.5254 -38.4352 106.474
lradius 57.8015 0 0
lwrist 18.1533 0 0
lhand 44.117 27.5203 0
lfingers 7.12502 0 0
lthumb 65.7072 33.474 0
rclavicle -1.85118e-15 0 0
rhumerus -55.8381 46.9807 -74.5842
rradius 114.708 0 0
rwrist -5.65682 0 0
rhand 22.8247 -10.4969 0
rfingers 7.12502 0 0
rthumb 47.1569 -753.094 0
926
root 2.02729 15.8325 32.776 4.56828 3.2777 4.8382
lfemur -0.417225 -6.8994 3.12499
ltibia 6.37584 -0 0
lfoot -7.6266 -46.4809 -0.0899015
ltoes 11.986 -0 0
rfemur -21.283 -2.63978 -11.1334
rtibia 39.4178 -0 0
rfoot -0.358142 -7.03103 -0.0398599
rtoes -48.2328 0 0
lowerback -3.36896 -0.439403 -2.56385
upperback -1.45735 -0.45644 -7.32319
thorax 0.343486 -0.234181 -6.18288
lowerneck -7.03108 -2.06532 0.385322
upperneck 3.79494 -3.12387 5.81416
head 2.53864 -1.36369 1.67347
lclavicle -1.85118e-15 0 0
lhumerus -53.7069 -38.6168 106.542
lradius 57.679 -0 0
lwrist 18.4565 0 0
lhand 44.3429 27.6818 -0.0279477
lfingers 7.12502 -0 0
lthumb 65.9049 33.4589 0.00507697
rclavicle -1.85118e-15 0 0
rhumerus -51.91 47.0906 -69.7201
rradius 112.396 -0 0
rwrist -5.86446 0 0
rhand 21.4215 -11.6094 0.596671
rfingers 7.12502 -0 0
rthumb 45.8345 -34.3061 0.662678
927
root 1.93235 15.7902 32.811 4.74547 2.7134 4.91044
lfemur 0.229859 -7.37039 3.37886
ltibia 5.27664 -0 0
lfoot -8.17069 -46.3664 -0.221396
ltoes 10.5682 -0 0
rfemur -21.5214 -2.89223 -11.2375
rtibia 38.9892 -0 0
rfoot -1.11651 -6.33836 -0.0844533
rtoes -49.85 0 0
lowerback -3.48116 -0.405237 -2.44233
upperback -1.50034 -0.414203 -7.4163
thorax 0.360232 -0.211625 -6.35239
lowerneck -7.02189 -1.88958 0.559582
upperneck 3.69721 -2.89496 5.74943
head 2.49498 -1.25245 1.63222
lclavicle -1.85118e-15 0 0
lhumerus -53.9166 -38.8304 106.652
lradius 57.5497 -0 0
lwrist 18.7916 0 0
lhand 44.5146 27.8015 -0.0526747
lfingers 7.12502 -0 0
lthumb 66.0576 33.459 0.00929795
rclavicle -1.85118e-15 0 0
rhumerus -47.1352 46.6575 -64.0209
rradius 109.557 -0 0
rwrist -6.14839 0 0
rhand 19.6065 -12.9518 1.28606
rfingers 7.12502 -0 0
rthumb 44.1197 -35.7974 1.43356
928
root 1.84925 15.7523 32.8394 4.92548 2.15176 4.97549
lfemur 0.874054 -7.7282 3.60437
ltibia 4.23384 -0 0
lfoot -8.84541 -45.9781 -0.386429
ltoes 8.90169 -0 0
rfemur -21.8201 -3.23952 -11.3098
rtibia 38.6867 -0 0
rfoot -1.97825 -5.6162 -0.13
rtoes -51.2542 0 0
lowerback -3.57267 -0.373468 -2.30405
upperback -1.53974 -0.376916 -7.49718
thorax 0.368987 -0.191883 -6.51845
lowerneck -7.01065 -1.70953 0.750907
upperneck 3.58564 -2.6602 5.66911
head 2.44623 -1.13898 1.58307
lclavicle -1.85118e-15 0 0
lhumerus -54.1518 -39.0721 106.802
lradius 57.415 -0 0
lwrist 19.1541 0 0
lhand 44.6342 27.8812 -0.0738969
lfingers 7.12502 -0 0
lthumb 66.1669 33.4735 0.0126312
rclavicle -1.85118e-15 0 0
rhumerus -41.7981 45.563 -57.7734
rradius 106.246 -0 0
rwrist -6.50151 0 0
rhand 17.4116 -14.5114 2.0311
rfingers 7.12502 -0 0
rthumb 42.04 -37.5522 2.27156
929
root 1.77697 15.7184 32.8614 5.10682 1.59702 5.03317
lfemur 1.51108 -7.97681 3.80307
ltibia 3.25206 -0 0
lfoot -9.63867 -45.3348 -0.575601
ltoes 7.0151 -0 0
rfemur -22.1731 -3.67291 -11.3504
rtibia 38.5047 -0 0
rfoot -2.93026 -4.87184 -0.17309
rtoes -52.4479 0 0
lowerback -3.64404 -0.344218 -2.15111
upperback -1.57546 -0.344543 -7.56596
thorax 0.370193 -0.174965 -6.67998
lowerneck -6.99745 -1.52688 0.956742
upperneck 3.46187 -2.42188 5.57471
head 2.39308 -1.02432 1.52685
lclavicle -1.85118e-15 0 0
lhumerus -54.41 -39.338 106.989
lradius 57.2763 -0 0
lwrist 19.5396 0 0
lhand 44.7043 27.923 -0.0914566
lfingers 7.12502 -0 0
lthumb 66.2347 33.5013 0.0150815
rclavicle -1.85118e-15 0 0
rhumerus -36.2265 43.7263 -51.3067
rradius 102.519 -0 0
rwrist -6.91674 0 0
rhand 14.8699 -16.2744 2.79358
rfingers 7.12502 -0 0
rthumb 39.6239 -39.5534 3.13393
